<?xml version="1.0" encoding="UTF-8" standalone="no"?>
<!-- Created with Inkscape (http://www.inkscape.org/) -->

<svg
   version="1.1"
   id="svg1"
   width="571.53021"
   height="257.64136"
   viewBox="0 0 571.53021 257.64136"
   sodipodi:docname="auditor_addon.svg"
   inkscape:version="1.3.2 (091e20e, 2023-11-25)"
   xmlns:inkscape="http://www.inkscape.org/namespaces/inkscape"
   xmlns:sodipodi="http://sodipodi.sourceforge.net/DTD/sodipodi-0.dtd"
   xmlns:xlink="http://www.w3.org/1999/xlink"
   xmlns="http://www.w3.org/2000/svg"
   xmlns:svg="http://www.w3.org/2000/svg">
  <sodipodi:namedview
     id="namedview1"
     pagecolor="#ffffff"
     bordercolor="#111111"
     borderopacity="1"
     inkscape:showpageshadow="0"
     inkscape:pageopacity="0"
     inkscape:pagecheckerboard="1"
     inkscape:deskcolor="#d1d1d1"
     showguides="true"
     inkscape:zoom="0.91531717"
     inkscape:cx="247.45521"
     inkscape:cy="130.55584"
     inkscape:window-width="1512"
     inkscape:window-height="856"
     inkscape:window-x="0"
     inkscape:window-y="33"
     inkscape:window-maximized="1"
     inkscape:current-layer="g21" />
  <defs
     id="defs1">
    <linearGradient
       id="linearGradient25"
       inkscape:collect="always">
      <stop
         style="stop-color:#475569;stop-opacity:1;"
         offset="0"
         id="stop25" />
      <stop
         style="stop-color:#94a3b8;stop-opacity:1;"
         offset="1"
         id="stop26" />
    </linearGradient>
    <linearGradient
       id="linearGradient23"
       inkscape:collect="always">
      <stop
         style="stop-color:#0a5daf;stop-opacity:1;"
         offset="0"
         id="stop22" />
      <stop
         style="stop-color:#539ff4;stop-opacity:1;"
         offset="1"
         id="stop23" />
    </linearGradient>
    <linearGradient
       id="linearGradient2"
       inkscape:collect="always">
      <stop
         style="stop-color:#0d64b9;stop-opacity:1;"
         offset="0"
         id="stop2" />
      <stop
         style="stop-color:#539ff4;stop-opacity:1;"
         offset="1"
         id="stop3" />
    </linearGradient>
    <linearGradient
       inkscape:collect="always"
       xlink:href="#linearGradient23"
       id="linearGradient3"
       x1="1429.0118"
       y1="821.66542"
       x2="2038.662"
       y2="821.66542"
       gradientUnits="userSpaceOnUse" />
    <linearGradient
       inkscape:collect="always"
       xlink:href="#linearGradient2"
       id="linearGradient11"
       gradientUnits="userSpaceOnUse"
       x1="1429.0118"
       y1="821.66542"
       x2="2038.662"
       y2="821.66542" />
    <linearGradient
       inkscape:collect="always"
       xlink:href="#linearGradient2"
       id="linearGradient12"
       gradientUnits="userSpaceOnUse"
       x1="1429.0118"
       y1="821.66542"
       x2="2038.662"
       y2="821.66542" />
    <linearGradient
       inkscape:collect="always"
       xlink:href="#linearGradient2"
       id="linearGradient13"
       gradientUnits="userSpaceOnUse"
       x1="1429.0118"
       y1="821.66542"
       x2="2038.662"
       y2="821.66542" />
    <linearGradient
       inkscape:collect="always"
       xlink:href="#linearGradient2"
       id="linearGradient14"
       gradientUnits="userSpaceOnUse"
       x1="1429.0118"
       y1="821.66542"
       x2="2038.662"
       y2="821.66542" />
    <linearGradient
       inkscape:collect="always"
       xlink:href="#linearGradient2"
       id="linearGradient15"
       gradientUnits="userSpaceOnUse"
       x1="1429.0118"
       y1="821.66542"
       x2="2038.662"
       y2="821.66542" />
    <linearGradient
       inkscape:collect="always"
       xlink:href="#linearGradient2"
       id="linearGradient16"
       gradientUnits="userSpaceOnUse"
       x1="1429.0118"
       y1="821.66542"
       x2="2038.662"
       y2="821.66542" />
    <linearGradient
       inkscape:collect="always"
       xlink:href="#linearGradient25"
       id="linearGradient26"
       x1="1456.6965"
       y1="820.22292"
       x2="2020.4675"
       y2="820.22292"
       gradientUnits="userSpaceOnUse" />
  </defs>
  <g
     inkscape:groupmode="layer"
     inkscape:label="Image"
     id="g1"
     style="display:none;fill:url(#linearGradient3);stroke:none"
     transform="translate(-1452.992,-693.46363)">
    <path
       style="fill:url(#linearGradient11);fill-opacity:1;stroke:none;stroke-width:0.573291"
       d="m 1582.7513,720.48025 c -0.6474,-2.48307 -1.3354,-5.20624 -1.529,-6.05149 -0.245,-1.06943 -0.5309,-1.61222 -0.9404,-1.78473 -0.3235,-0.13634 -3.0392,-0.83867 -6.0346,-1.56072 -6.3532,-1.53144 -6.5319,-1.58038 -6.3687,-1.7437 0.1598,-0.15976 3.0097,-0.9437 8.2319,-2.26444 2.286,-0.57814 4.3068,-1.20064 4.4907,-1.38332 0.184,-0.18269 1.001,-2.97646 1.8157,-6.20839 0.8146,-3.23193 1.5318,-5.92694 1.5936,-5.98892 0.1614,-0.16158 0.2319,0.0924 1.742,6.27556 0.7508,3.07428 1.5006,5.73185 1.6661,5.90571 0.29,0.30454 1.4213,0.6315 9.4228,2.72341 2.5045,0.65476 3.5091,1.02722 3.1531,1.16902 -0.2873,0.11446 -3.2576,0.87155 -6.6006,1.68244 l -6.0782,1.47434 -0.2704,0.90367 c -0.1487,0.497 -0.8275,3.25774 -1.5085,6.13495 -0.6809,2.8772 -1.3214,5.23128 -1.4233,5.23128 -0.1019,0 -0.7149,-2.0316 -1.3622,-4.51467 z"
       id="path8"
       inkscape:label="top star" />
    <path
       style="fill:url(#linearGradient12);fill-opacity:1;stroke:none;stroke-width:0.573291"
       d="m 1621.0927,755.8961 c -1.593,-6.41352 -2.9984,-11.74962 -3.1231,-11.85801 -0.1246,-0.10839 -5.3581,-1.46125 -11.6299,-3.00637 -10.1549,-2.5017 -12.8591,-3.29801 -11.1999,-3.29801 0.7926,0 22.5748,-5.4484 22.8405,-5.71312 0.1305,-0.13 0.3416,-0.67134 0.4692,-1.203 0.5584,-2.32739 3.3812,-12.04763 4.6096,-18.02206 0.3404,-1.65537 0.7193,-3.19202 0.842,-3.41478 0.2655,-0.48168 0.2867,-0.42158 1.1571,3.27146 2.3043,9.77704 4.6731,18.96907 4.9589,19.24292 0.186,0.17837 5.24,1.513 11.2308,2.96585 12.347,2.99423 12.4993,3.03564 11.8958,3.23388 -0.2364,0.0777 -5.3316,1.33897 -11.3225,2.80284 -5.9909,1.46387 -11.142,2.81207 -11.4469,2.99601 -0.4329,0.26112 -1.0128,2.15194 -2.645,8.6247 -1.6526,4.8765 -2.3255,9.99914 -3.6539,14.9525 -0.048,0.0474 -1.3895,-5.16129 -2.9827,-11.57481 z"
       id="path7"
       inkscape:label="big star" />
    <path
       style="fill:url(#linearGradient13);fill-opacity:1;stroke:none;stroke-width:0.573291"
       d="m 1653.4026,798.15633 c -0.1765,-0.29112 -1.3501,-5.23209 -2.221,-9.35007 -0.4296,-2.03153 -0.8112,-3.17767 -1.1095,-3.33258 -0.3558,-0.18475 -6.528,-1.67405 -11.4189,-2.75529 -1.1094,-0.24525 -0.7122,-0.57651 1.1466,-0.95621 2.089,-0.42675 10.0684,-2.35311 10.1806,-2.45778 0.1262,-0.11779 1.3864,-4.64696 2.3766,-8.5418 0.511,-2.0101 1.0282,-3.65473 1.1494,-3.65473 0.1211,0 0.5061,1.25766 0.8555,2.7948 0.9609,4.2282 2.2146,9.27905 2.3243,9.36341 0.1305,0.10049 5.8022,1.52991 8.84,2.22794 3.2626,0.74968 3.4842,0.92653 2.5798,1.1036 -1.0932,0.21402 -1.8535,0.35643 -3.2964,0.73419 -4.97,1.30115 -8.1566,2.20428 -8.2902,2.65294 -0.077,0.25943 -0.7319,3.11064 -1.455,6.33601 -0.723,3.22537 -1.3608,5.9105 -1.4173,5.96697 -0.056,0.0565 -0.1664,-0.003 -0.2445,-0.1314 z"
       id="path6"
       inkscape:label="bottom star" />
    <path
       id="path10"
       style="display:inline;fill:url(#linearGradient14);stroke:none;stroke-width:7.43003;stroke-dasharray:none;stroke-opacity:1;paint-order:markers fill stroke"
       d="m 1545.7769,711.32478 c -3.2616,0.0436 -5.7587,0.14037 -9.4258,0.44117 -6.6011,0.59792 -13.1906,1.34074 -19.7535,2.27033 -5.0373,0.72842 -10.0425,1.66783 -15.0112,2.76948 -4.1091,0.91665 -7.7658,1.80027 -12.4744,2.97204 -6.0697,1.49956 -8.4181,2.18811 -14.6606,4.34748 -5.854,2.12518 -11.8287,3.92872 -17.5224,6.46075 -0.1944,3.95636 -0.1578,7.92019 -0.193,11.8803 -0.055,15.23349 -0.046,30.46722 -0.013,45.70076 0.048,5.84599 0.022,11.69892 0.4034,17.53531 0.3042,4.25187 0.9051,8.47619 1.5206,12.69217 0.1722,1.17732 0.3785,2.34917 0.5736,3.52281 0.038,0.22118 0.1229,0.6773 0.179,0.98841 0.076,0.41582 0.1789,0.99067 0.2387,1.30923 0.1473,0.75259 0.3277,1.65688 0.4546,2.31556 2.6548,13.0241 6.8985,25.72144 12.6079,37.72463 0.1678,0.34568 0.434,0.8955 0.6416,1.32408 0.1791,0.36632 0.3575,0.74472 0.5071,1.04254 3.5644,7.19742 7.6386,14.14087 12.1568,20.78064 0.2331,0.33982 0.5993,0.87372 0.8396,1.21579 2.9199,4.18789 6.0367,8.23746 9.3184,12.14794 0.4487,0.52663 0.9876,1.16775 1.4775,1.73275 1.3508,1.57128 2.789,3.17773 4.158,4.66191 0.9633,1.04391 2.0016,2.13806 2.9471,3.12287 9.9633,10.2882 21.0632,19.48866 33.0975,27.25933 2.3036,1.48883 4.5685,2.87173 7.1628,4.37694 3.1212,1.79141 6.287,3.51125 9.5354,5.06221 3.5223,-1.6894 6.9236,-3.61828 10.29,-5.59695 4.8687,-2.93923 9.652,-6.02319 14.3195,-9.2727 2.9202,-2.08136 5.7091,-4.34128 8.4902,-6.60302 6.8877,-5.66806 13.4343,-11.75811 19.4953,-18.30501 0.4198,-0.45729 0.9426,-1.02176 1.3964,-1.52771 0.62,-0.68081 1.2291,-1.37959 1.8116,-2.03409 4.8616,-5.5332 9.2916,-11.43135 13.4791,-17.4865 4.2518,-6.20229 7.8148,-12.83811 11.2901,-19.49595 0.4115,-0.80489 0.7991,-1.58663 1.1752,-2.36477 2.175,-4.47904 4.0971,-9.07883 5.8116,-13.75276 0.2954,-0.80563 0.6284,-1.73734 0.9279,-2.59484 1.0399,-2.99036 2.016,-6.08528 2.8803,-9.07925 1.2649,-4.46181 2.4339,-8.99836 3.3143,-13.59108 0.1622,-0.86257 0.2942,-1.60091 0.4414,-2.46143 0.6899,-4.11169 1.3251,-8.23694 1.7241,-12.38811 -10.0537,-0.14181 -20.1094,0.0272 -30.1629,-0.1296 -2.4381,-0.0369 -5.573,0.33068 -5.358,-2.9085 0.519,-1.75482 1.7794,-3.15501 2.5113,-4.81495 1.269,-2.54168 1.5925,-5.48288 1.1747,-8.27354 -0.3804,-2.11875 -1.3501,-4.07629 -2.3576,-5.95857 -1.3679,-2.3157 -5.8153,-5.56903 -9.1665,-6.33521 -2.29,-0.36881 -4.6343,-0.37405 -6.9394,-0.14678 -2.5042,0.32424 -4.7633,1.6332 -6.7337,3.15144 -1.9924,1.55673 -3.6935,3.54271 -4.6515,5.90241 -1.5666,3.58282 -1.5244,7.79163 0.017,11.3751 0.5926,1.5673 1.6545,2.88639 2.3743,4.38797 0.7178,1.49804 0.9041,3.35308 -2.4032,3.55183 -5.8597,0.14166 -11.7223,0.093 -17.5833,0.0803 -5.7838,-0.0257 -11.5675,-0.0507 -17.3513,-0.0768 -0.097,-10.45834 -0.1444,-20.91727 -0.2885,-31.37509 -0.055,-1.71499 0.097,-4.60848 -0.2602,-5.14536 -1.344,-1.78616 -3.0781,-1.35251 -4.6916,-0.29921 -1.723,1.19165 -3.5992,2.29996 -5.7194,2.54875 -1.7985,0.21969 -3.6225,0.19977 -5.4283,0.0912 -1.7197,-0.14709 -3.3006,-0.95522 -4.7467,-1.84744 -2.7755,-1.8347 -5.0304,-4.50079 -6.2769,-7.59342 -0.6631,-2.01926 -0.8201,-4.17406 -0.7916,-6.28829 0.056,-2.68434 0.7528,-5.42189 2.4013,-7.58309 1.2652,-1.80916 2.7348,-3.54423 4.6725,-4.65829 2.1999,-1.63794 4.6733,-2.35518 7.3792,-2.14434 2.3833,0.22359 4.8057,0.59493 6.9625,1.69241 1.3535,0.55854 2.431,1.59021 3.732,2.2397 0.555,0.19366 2.3827,-0.66459 2.4018,-1.33918 0.3552,-2.18392 0.3225,-4.40779 0.3989,-6.61358 0.159,-9.41645 0.1491,-18.83479 0.2157,-28.25217 0.01,-0.77551 0.01,-1.55101 0.013,-2.32652 -2.9855,-0.0113 -5.9711,-0.0408 -8.9565,-0.0146 z"
       inkscape:label="shield"
       sodipodi:nodetypes="scccccccccscccccccccccscccccccccccccscccccccccccccccsccccccccccccccccccscss" />
    <text
       xml:space="preserve"
       style="font-style:normal;font-variant:normal;font-weight:normal;font-stretch:normal;font-size:96px;font-family:Inter;-inkscape-font-specification:'Inter, @opsz=32.0,wght=300';font-variant-ligatures:normal;font-variant-caps:normal;font-variant-numeric:normal;font-variant-east-asian:normal;font-variation-settings:'opsz' 32, 'wght' 300;text-align:center;letter-spacing:0px;word-spacing:0.08px;text-anchor:middle;fill:url(#linearGradient15);stroke:none;stroke-width:7;stroke-linecap:round;paint-order:markers stroke fill"
       x="1823.616"
       y="910.48212"
       id="text9"
       inkscape:label="text9"><tspan
         sodipodi:role="line"
         id="tspan9"
         x="1823.616"
         y="910.48212"
         style="fill:url(#linearGradient15)">Addon</tspan></text>
    <text
       xml:space="preserve"
       style="font-style:normal;font-variant:normal;font-weight:bold;font-stretch:normal;font-size:96px;font-family:Inter;-inkscape-font-specification:'Inter, Bold';font-variant-ligatures:normal;font-variant-caps:normal;font-variant-numeric:normal;font-variant-east-asian:normal;text-align:center;letter-spacing:0px;word-spacing:0.08px;text-anchor:middle;fill:url(#linearGradient16);stroke:none;stroke-width:7;stroke-linecap:round;paint-order:markers stroke fill"
       x="1855.491"
       y="821.44275"
       id="text8"
       inkscape:label="text8"><tspan
         sodipodi:role="line"
         id="tspan8"
         x="1855.491"
         y="821.44275"
         style="font-style:normal;font-variant:normal;font-weight:bold;font-stretch:normal;font-size:96px;font-family:Inter;-inkscape-font-specification:'Inter, Bold';font-variant-ligatures:normal;font-variant-caps:normal;font-variant-numeric:normal;font-variant-east-asian:normal;fill:url(#linearGradient16);stroke:none">Auditor</tspan></text>
  </g>
  <g
     inkscape:groupmode="layer"
     inkscape:label="Image copy"
     id="g21"
     style="display:inline;stroke:none;fill:url(#linearGradient3)"
     transform="translate(-1452.992,-693.46363)">
    <g
       id="g23"
       style="stroke:none;fill:url(#linearGradient26);fill-opacity:1"
       inkscape:label="g23">
      <path
         style="fill:url(#linearGradient26);fill-opacity:1;stroke:none;stroke-width:0.573291"
         d="m 1582.7513,720.48025 c -0.6474,-2.48307 -1.3354,-5.20624 -1.529,-6.05149 -0.245,-1.06943 -0.5309,-1.61222 -0.9404,-1.78473 -0.3235,-0.13634 -3.0392,-0.83867 -6.0346,-1.56072 -6.3532,-1.53144 -6.5319,-1.58038 -6.3687,-1.7437 0.1598,-0.15976 3.0097,-0.9437 8.2319,-2.26444 2.286,-0.57814 4.3068,-1.20064 4.4907,-1.38332 0.184,-0.18269 1.001,-2.97646 1.8157,-6.20839 0.8146,-3.23193 1.5318,-5.92694 1.5936,-5.98892 0.1614,-0.16158 0.2319,0.0924 1.742,6.27556 0.7508,3.07428 1.5006,5.73185 1.6661,5.90571 0.29,0.30454 1.4213,0.6315 9.4228,2.72341 2.5045,0.65476 3.5091,1.02722 3.1531,1.16902 -0.2873,0.11446 -3.2576,0.87155 -6.6006,1.68244 l -6.0782,1.47434 -0.2704,0.90367 c -0.1487,0.497 -0.8275,3.25774 -1.5085,6.13495 -0.6809,2.8772 -1.3214,5.23128 -1.4233,5.23128 -0.1019,0 -0.7149,-2.0316 -1.3622,-4.51467 z"
         id="path17"
         inkscape:label="top star" />
      <path
         style="fill:url(#linearGradient26);fill-opacity:1;stroke:none;stroke-width:0.573291"
         d="m 1621.0927,755.8961 c -1.593,-6.41352 -2.9984,-11.74962 -3.1231,-11.85801 -0.1246,-0.10839 -5.3581,-1.46125 -11.6299,-3.00637 -10.1549,-2.5017 -12.8591,-3.29801 -11.1999,-3.29801 0.7926,0 22.5748,-5.4484 22.8405,-5.71312 0.1305,-0.13 0.3416,-0.67134 0.4692,-1.203 0.5584,-2.32739 3.3812,-12.04763 4.6096,-18.02206 0.3404,-1.65537 0.7193,-3.19202 0.842,-3.41478 0.2655,-0.48168 0.2867,-0.42158 1.1571,3.27146 2.3043,9.77704 4.6731,18.96907 4.9589,19.24292 0.186,0.17837 5.24,1.513 11.2308,2.96585 12.347,2.99423 12.4993,3.03564 11.8958,3.23388 -0.2364,0.0777 -5.3316,1.33897 -11.3225,2.80284 -5.9909,1.46387 -11.142,2.81207 -11.4469,2.99601 -0.4329,0.26112 -1.0128,2.15194 -2.645,8.6247 -1.6526,4.8765 -2.3255,9.99914 -3.6539,14.9525 -0.048,0.0474 -1.3895,-5.16129 -2.9827,-11.57481 z"
         id="path18"
         inkscape:label="big star" />
      <path
         style="fill:url(#linearGradient26);fill-opacity:1;stroke:none;stroke-width:0.573291"
         d="m 1653.4026,798.15633 c -0.1765,-0.29112 -1.3501,-5.23209 -2.221,-9.35007 -0.4296,-2.03153 -0.8112,-3.17767 -1.1095,-3.33258 -0.3558,-0.18475 -6.528,-1.67405 -11.4189,-2.75529 -1.1094,-0.24525 -0.7122,-0.57651 1.1466,-0.95621 2.089,-0.42675 10.0684,-2.35311 10.1806,-2.45778 0.1262,-0.11779 1.3864,-4.64696 2.3766,-8.5418 0.511,-2.0101 1.0282,-3.65473 1.1494,-3.65473 0.1211,0 0.5061,1.25766 0.8555,2.7948 0.9609,4.2282 2.2146,9.27905 2.3243,9.36341 0.1305,0.10049 5.8022,1.52991 8.84,2.22794 3.2626,0.74968 3.4842,0.92653 2.5798,1.1036 -1.0932,0.21402 -1.8535,0.35643 -3.2964,0.73419 -4.97,1.30115 -8.1566,2.20428 -8.2902,2.65294 -0.077,0.25943 -0.7319,3.11064 -1.455,6.33601 -0.723,3.22537 -1.3608,5.9105 -1.4173,5.96697 -0.056,0.0565 -0.1664,-0.003 -0.2445,-0.1314 z"
         id="path19"
         inkscape:label="bottom star" />
      <path
         id="path20"
         style="display:inline;fill:url(#linearGradient26);stroke:none;stroke-width:7.43003;stroke-dasharray:none;stroke-opacity:1;paint-order:markers fill stroke;fill-opacity:1"
         d="m 1545.7769,711.32478 c -3.2616,0.0436 -5.7587,0.14037 -9.4258,0.44117 -6.6011,0.59792 -13.1906,1.34074 -19.7535,2.27033 -5.0373,0.72842 -10.0425,1.66783 -15.0112,2.76948 -4.1091,0.91665 -7.7658,1.80027 -12.4744,2.97204 -6.0697,1.49956 -8.4181,2.18811 -14.6606,4.34748 -5.854,2.12518 -11.8287,3.92872 -17.5224,6.46075 -0.1944,3.95636 -0.1578,7.92019 -0.193,11.8803 -0.055,15.23349 -0.046,30.46722 -0.013,45.70076 0.048,5.84599 0.022,11.69892 0.4034,17.53531 0.3042,4.25187 0.9051,8.47619 1.5206,12.69217 0.1722,1.17732 0.3785,2.34917 0.5736,3.52281 0.038,0.22118 0.1229,0.6773 0.179,0.98841 0.076,0.41582 0.1789,0.99067 0.2387,1.30923 0.1473,0.75259 0.3277,1.65688 0.4546,2.31556 2.6548,13.0241 6.8985,25.72144 12.6079,37.72463 0.1678,0.34568 0.434,0.8955 0.6416,1.32408 0.1791,0.36632 0.3575,0.74472 0.5071,1.04254 3.5644,7.19742 7.6386,14.14087 12.1568,20.78064 0.2331,0.33982 0.5993,0.87372 0.8396,1.21579 2.9199,4.18789 6.0367,8.23746 9.3184,12.14794 0.4487,0.52663 0.9876,1.16775 1.4775,1.73275 1.3508,1.57128 2.789,3.17773 4.158,4.66191 0.9633,1.04391 2.0016,2.13806 2.9471,3.12287 9.9633,10.2882 21.0632,19.48866 33.0975,27.25933 2.3036,1.48883 4.5685,2.87173 7.1628,4.37694 3.1212,1.79141 6.287,3.51125 9.5354,5.06221 3.5223,-1.6894 6.9236,-3.61828 10.29,-5.59695 4.8687,-2.93923 9.652,-6.02319 14.3195,-9.2727 2.9202,-2.08136 5.7091,-4.34128 8.4902,-6.60302 6.8877,-5.66806 13.4343,-11.75811 19.4953,-18.30501 0.4198,-0.45729 0.9426,-1.02176 1.3964,-1.52771 0.62,-0.68081 1.2291,-1.37959 1.8116,-2.03409 4.8616,-5.5332 9.2916,-11.43135 13.4791,-17.4865 4.2518,-6.20229 7.8148,-12.83811 11.2901,-19.49595 0.4115,-0.80489 0.7991,-1.58663 1.1752,-2.36477 2.175,-4.47904 4.0971,-9.07883 5.8116,-13.75276 0.2954,-0.80563 0.6284,-1.73734 0.9279,-2.59484 1.0399,-2.99036 2.016,-6.08528 2.8803,-9.07925 1.2649,-4.46181 2.4339,-8.99836 3.3143,-13.59108 0.1622,-0.86257 0.2942,-1.60091 0.4414,-2.46143 0.6899,-4.11169 1.3251,-8.23694 1.7241,-12.38811 -10.0537,-0.14181 -20.1094,0.0272 -30.1629,-0.1296 -2.4381,-0.0369 -5.573,0.33068 -5.358,-2.9085 0.519,-1.75482 1.7794,-3.15501 2.5113,-4.81495 1.269,-2.54168 1.5925,-5.48288 1.1747,-8.27354 -0.3804,-2.11875 -1.3501,-4.07629 -2.3576,-5.95857 -1.3679,-2.3157 -5.8153,-5.56903 -9.1665,-6.33521 -2.29,-0.36881 -4.6343,-0.37405 -6.9394,-0.14678 -2.5042,0.32424 -4.7633,1.6332 -6.7337,3.15144 -1.9924,1.55673 -3.6935,3.54271 -4.6515,5.90241 -1.5666,3.58282 -1.5244,7.79163 0.017,11.3751 0.5926,1.5673 1.6545,2.88639 2.3743,4.38797 0.7178,1.49804 0.9041,3.35308 -2.4032,3.55183 -5.8597,0.14166 -11.7223,0.093 -17.5833,0.0803 -5.7838,-0.0257 -11.5675,-0.0507 -17.3513,-0.0768 -0.097,-10.45834 -0.1444,-20.91727 -0.2885,-31.37509 -0.055,-1.71499 0.097,-4.60848 -0.2602,-5.14536 -1.344,-1.78616 -3.0781,-1.35251 -4.6916,-0.29921 -1.723,1.19165 -3.5992,2.29996 -5.7194,2.54875 -1.7985,0.21969 -3.6225,0.19977 -5.4283,0.0912 -1.7197,-0.14709 -3.3006,-0.95522 -4.7467,-1.84744 -2.7755,-1.8347 -5.0304,-4.50079 -6.2769,-7.59342 -0.6631,-2.01926 -0.8201,-4.17406 -0.7916,-6.28829 0.056,-2.68434 0.7528,-5.42189 2.4013,-7.58309 1.2652,-1.80916 2.7348,-3.54423 4.6725,-4.65829 2.1999,-1.63794 4.6733,-2.35518 7.3792,-2.14434 2.3833,0.22359 4.8057,0.59493 6.9625,1.69241 1.3535,0.55854 2.431,1.59021 3.732,2.2397 0.555,0.19366 2.3827,-0.66459 2.4018,-1.33918 0.3552,-2.18392 0.3225,-4.40779 0.3989,-6.61358 0.159,-9.41645 0.1491,-18.83479 0.2157,-28.25217 0.01,-0.77551 0.01,-1.55101 0.013,-2.32652 -2.9855,-0.0113 -5.9711,-0.0408 -8.9565,-0.0146 z"
         inkscape:label="shield"
         sodipodi:nodetypes="scccccccccscccccccccccscccccccccccccscccccccccccccccsccccccccccccccccccscss" />
      <path
         d="m 1689.6238,910.48212 25.875,-69.84375 h 7.3594 l 25.7343,69.84375 h -6.75 l -16.5468,-46.07813 q -1.4532,-4.03125 -3.1407,-8.85937 -1.6406,-4.82813 -3.9375,-11.90625 h 1.9219 q -2.2969,7.07812 -3.9844,11.90625 -1.6406,4.82812 -3.0937,8.85937 l -16.7813,46.07813 z m 12.3281,-20.71875 v -5.71875 h 34.3125 v 5.71875 z m 70.7344,21.60937 q -6.3281,0 -11.2031,-3.23437 -4.875,-3.23438 -7.6407,-9 -2.7187,-5.76563 -2.7187,-13.40625 0,-7.64063 2.7187,-13.40625 2.7657,-5.8125 7.6407,-9 4.875,-3.23438 11.2031,-3.23438 3.75,0 7.0312,1.26563 3.2813,1.21875 5.7657,3.51562 2.5312,2.29688 3.8906,5.4375 h 0.047 v -29.67187 h 6.0468 v 69.84375 h -5.9062 v -9.375 h -0.094 q -1.5,3.1875 -4.0312,5.53125 -2.5313,2.29687 -5.7656,3.51562 -3.2344,1.21875 -6.9844,1.21875 z m 0.7969,-5.53125 q 4.9687,0 8.6718,-2.48437 3.7032,-2.48438 5.7188,-6.98438 2.0156,-4.54687 2.0156,-10.64062 0,-6.14063 -2.0156,-10.64063 -2.0156,-4.54687 -5.7188,-7.03125 -3.7031,-2.48437 -8.6718,-2.48437 -4.6875,0 -8.3907,2.34375 -3.6562,2.34375 -5.7656,6.84375 -2.1094,4.5 -2.1094,10.96875 0,6.42187 2.1094,10.92187 2.1094,4.5 5.7656,6.84375 3.7032,2.34375 8.3907,2.34375 z m 52.875,5.53125 q -6.3282,0 -11.2032,-3.23437 -4.875,-3.23438 -7.6406,-9 -2.7187,-5.76563 -2.7187,-13.40625 0,-7.64063 2.7187,-13.40625 2.7656,-5.8125 7.6406,-9 4.875,-3.23438 11.2032,-3.23438 3.75,0 7.0312,1.26563 3.2813,1.21875 5.7656,3.51562 2.5313,2.29688 3.8907,5.4375 h 0.047 v -29.67187 h 6.0469 v 69.84375 h -5.9062 v -9.375 h -0.094 q -1.5,3.1875 -4.0312,5.53125 -2.5313,2.29687 -5.7657,3.51562 -3.2343,1.21875 -6.9843,1.21875 z m 0.7968,-5.53125 q 4.9688,0 8.6719,-2.48437 3.7031,-2.48438 5.7188,-6.98438 2.0156,-4.54687 2.0156,-10.64062 0,-6.14063 -2.0156,-10.64063 -2.0157,-4.54687 -5.7188,-7.03125 -3.7031,-2.48437 -8.6719,-2.48437 -4.6875,0 -8.3906,2.34375 -3.6562,2.34375 -5.7656,6.84375 -2.1094,4.5 -2.1094,10.96875 0,6.42187 2.1094,10.92187 2.1094,4.5 5.7656,6.84375 3.7031,2.34375 8.3906,2.34375 z m 53.8594,5.625 q -6.6562,0 -11.7656,-3.28125 -5.1094,-3.32812 -7.9688,-9.09375 -2.8125,-5.8125 -2.8125,-13.3125 0,-7.5 2.8125,-13.3125 2.8594,-5.85937 7.9688,-9.14062 5.1094,-3.32813 11.7656,-3.32813 6.75,0 11.8125,3.32813 5.0625,3.28125 7.875,9.14062 2.8594,5.8125 2.8594,13.3125 0,7.5 -2.8594,13.3125 -2.8125,5.76563 -7.875,9.09375 -5.0625,3.28125 -11.8125,3.28125 z m 0,-5.53125 q 5.0625,0 8.7188,-2.48437 3.7031,-2.53125 5.7187,-7.07813 2.0156,-4.59375 2.0156,-10.59375 0,-6.04687 -2.0156,-10.59375 -2.0156,-4.54687 -5.7187,-7.07812 -3.6563,-2.57813 -8.7188,-2.57813 -4.9687,0 -8.7187,2.53125 -3.7032,2.53125 -5.7188,7.125 -2.0156,4.54688 -2.0156,10.59375 0,6.04688 2.0156,10.59375 2.0156,4.54688 5.7188,7.07813 3.7031,2.48437 8.7187,2.48437 z m 37.875,-25.5 v 30.04688 h -6 v -49.5 h 5.9063 v 11.76562 h -1.6875 q 2.1562,-6.46875 6.7031,-9.5625 4.5937,-3.09375 10.4531,-3.09375 5.1563,0 9.2813,2.25 4.125,2.20313 6.5156,6.46875 2.4375,4.21875 2.4375,10.40625 v 31.26563 h -6.0469 v -30.89063 q 0,-6.65625 -3.5625,-10.26562 -3.5156,-3.60938 -9.6094,-3.60938 -4.0312,0 -7.3125,1.64063 -3.2343,1.64062 -5.1562,4.92187 -1.9219,3.28125 -1.9219,8.15625 z"
         id="text20"
         style="-inkscape-font-specification:'Inter, @opsz=32.0,wght=300';fill:url(#linearGradient26);stroke-width:7;stroke-linecap:round;paint-order:markers stroke fill;stroke:none;fill-opacity:1"
         inkscape:label="text9"
         aria-label="Addon" />
      <path
         d="m 1689.6238,821.44275 24.5156,-69.84375 h 18.5625 l 24.5156,69.84375 h -15.9843 l -10.9688,-33.98438 q -2.0156,-6.70312 -4.1719,-13.78125 -2.1093,-7.125 -4.5937,-16.17187 h 3.9844 q -2.5782,9.04687 -4.7344,16.17187 -2.1094,7.07813 -4.2188,13.78125 l -11.3437,33.98438 z m 15.5625,-15.23438 v -11.53125 h 36.5156 v 11.53125 z m 74.7656,16.26563 q -5.25,0 -9.1875,-2.25 -3.8906,-2.29688 -6.0469,-6.65625 -2.1562,-4.40625 -2.1562,-10.64063 v -30.98437 h 13.8281 v 28.45312 q 0,4.96875 2.3906,7.59375 2.3907,2.57813 6.7032,2.57813 2.8593,0 5.0156,-1.17188 2.2031,-1.17187 3.4219,-3.65625 1.2656,-2.48437 1.2656,-6.28125 v -27.51562 h 13.7812 v 49.5 h -13.5468 v -12.89063 h 2.3437 q -2.3437,6.5625 -6.7031,10.26563 -4.3125,3.65625 -11.1094,3.65625 z m 58.0781,0 q -6.4687,0 -11.2968,-3.23438 -4.8282,-3.23437 -7.5,-9.04687 -2.625,-5.8125 -2.625,-13.54688 0,-7.64062 2.6718,-13.40625 2.7188,-5.8125 7.5,-9.04687 4.8282,-3.28125 11.1563,-3.28125 3.2344,0 5.9531,0.89062 2.7188,0.84375 4.875,2.57813 2.1563,1.73437 3.75,4.40625 h 0.047 V 751.599 h 13.7812 v 69.84375 h -13.5937 V 813.849 h -0.047 q -1.4531,2.85937 -3.6562,4.82812 -2.1563,1.92188 -4.9688,2.85938 -2.8125,0.9375 -6.0469,0.9375 z m 3.5625,-11.25 q 3.5157,0 6.0938,-1.78125 2.625,-1.82813 4.0781,-5.10938 1.4531,-3.28125 1.4531,-7.6875 0,-4.45312 -1.4531,-7.6875 -1.4531,-3.28125 -4.0781,-5.0625 -2.5781,-1.82812 -6.0938,-1.82812 -3.3281,0 -5.8125,1.73437 -2.4843,1.73438 -3.8906,4.96875 -1.3594,3.23438 -1.3594,7.875 0,4.64063 1.3594,7.92188 1.4063,3.23437 3.8906,4.96875 2.4844,1.6875 5.8125,1.6875 z m 34.5469,10.21875 v -49.5 h 13.8281 v 49.5 z m 6.8906,-55.73438 q -3.4218,0 -5.6718,-2.0625 -2.25,-2.10937 -2.25,-5.29687 0,-3.1875 2.25,-5.25 2.25,-2.10938 5.625,-2.10938 3.4218,0 5.6718,2.10938 2.25,2.0625 2.25,5.25 0,3.1875 -2.25,5.29687 -2.25,2.0625 -5.625,2.0625 z m 45.8251,6.23438 v 10.82812 h -32.4844 v -10.82812 z m -23.9531,-13.5 h 13.8281 v 47.71875 q 0,2.48437 0.9844,3.46875 1.0312,0.98437 3.8437,0.98437 1.1719,0 2.7657,0 1.6406,0 2.5312,0 v 10.82813 q -1.2656,0 -3.5156,0 -2.25,0 -4.5469,0 -8.1562,0 -12.0469,-3.1875 -3.8437,-3.1875 -3.8437,-9.9375 z m 53.1749,64.125 q -7.4531,0 -13.125,-3.23438 -5.6719,-3.23437 -8.8594,-9.04687 -3.1406,-5.8125 -3.1406,-13.54688 0,-7.78125 3.1406,-13.59375 3.1875,-5.8125 8.8594,-9.04687 5.6719,-3.28125 13.125,-3.28125 7.5469,0 13.1719,3.28125 5.6719,3.23437 8.8125,9.04687 3.1875,5.8125 3.1875,13.59375 0,7.73438 -3.1875,13.54688 -3.1406,5.8125 -8.8125,9.04687 -5.625,3.23438 -13.1719,3.23438 z m 0,-11.20313 q 3.375,0 5.9063,-1.73437 2.5312,-1.78125 3.9375,-5.0625 1.4062,-3.28125 1.4062,-7.82813 0,-4.64062 -1.4062,-7.92187 -1.4063,-3.28125 -3.9375,-5.01563 -2.5313,-1.78125 -5.9063,-1.78125 -3.3281,0 -5.8594,1.78125 -2.5312,1.73438 -3.9375,5.01563 -1.4062,3.28125 -1.4062,7.92187 0,4.59375 1.4062,7.875 1.4063,3.23438 3.9375,5.01563 2.5313,1.73437 5.8594,1.73437 z m 32.7656,10.07813 v -49.5 h 13.3125 v 8.4375 h 0.1407 q 1.3593,-4.45313 4.2656,-6.60938 2.9062,-2.15625 7.8281,-2.15625 1.2188,0 2.2031,0.0469 1.0313,0 1.875,0.0469 V 783.474 q -0.75,-0.0469 -2.4843,-0.14063 -1.6875,-0.0937 -3.4688,-0.0937 -2.8125,0 -5.0625,1.3125 -2.25,1.26563 -3.5156,3.79688 -1.2656,2.53125 -1.2656,6.28125 v 26.8125 z"
         id="text21"
         style="-inkscape-font-specification:'Inter, Bold';fill:url(#linearGradient26);stroke-width:7;stroke-linecap:round;paint-order:markers stroke fill;stroke:none;fill-opacity:1"
         inkscape:label="text8"
         aria-label="Auditor" />
    </g>
  </g>
</svg>
